<?xml version="1.0" encoding="UTF-8"?>
<svg id="Layer_2" data-name="Layer 2" xmlns="http://www.w3.org/2000/svg" viewBox="0 0 974 362">
  <defs>
    <style>
      .cls-1 {
        fill: #fff;
      }
    </style>
  </defs>
  <g id="Layer_2-2" data-name="Layer 2">
    <g>
      <g>
        <path class="cls-1" d="M973.41,176c-4.21,54.29-36.25,101.4-85.72,123.71-48.41,21.83-104.45,14.31-156.4,14.68-20.46.14-43.99,3.68-64.17,1.68-2.57-.26-4.97-.36-5.45-3.56,13.33-11.31,22.15-25.19,24.04-42.96l-.04-216.05c-1.88-8.94-3.66-17.59-8.11-25.66-1.13-2.05-10.25-13.85-11.91-15.12-1.83-1.4-5.02.02-1.98-4.23l163.41-.52c74.72,3.99,138.77,58.04,146.33,134.04.88,8.8.69,25.06,0,34ZM741.61,27v246.5c0,.44,2.1,7.48,2.5,8.5,6.25,16.05,27.83,14.65,42,14.96,76.63,1.69,124.14-31.2,128.4-111.41,3.69-69.54-25.47-139.12-98.57-155.44-24.26-5.41-49.59-2.3-74.32-3.11Z"/>
        <path class="cls-1" d="M604.73,0l-4.01,75c-2.05,1.74-12.33-11.17-14.36-12.62-7.08-5.05-16.03-5.84-24.18-8.3l-99.23.02-7.09,65.89c52.15-16.37,128.05-.85,153.38,51.97,14.68,30.61,12.37,70.51-4.61,99.21-34.64,58.53-139.78,67.38-188.35,23.4-1.8-1.63-9.8-9.91-10.22-11.31l21.84-55.27c1.53-1.31,1.79.04,1.97,1.48,1.93,15.82,5.78,33.79,16.34,46.16,23.09,27.03,67.22,30.09,94.78,8.31,29.05-22.97,28.69-84.53,4.29-110.96-26.86-29.09-74.76-30.68-108.73-13.81-2,.99-7.52,6.55-9.2,3.85l4.52-155.03,133.42.04c11.43-2.37,24.06-2.54,34.44-8.03h5Z"/>
      </g>
      <g>
        <path class="cls-1" d="M145.14,0c3.78,5.13-4.93,5.42-8.36,7.14-29.86,14.97-56.75,47.03-69.25,77.68-56.29,137.98,82.31,276.1,218.67,209.07,33.56-16.5,59.39-44.26,73.41-78.74.21-.52,1.93-9.96,4.33-7.15.82.96-.48,10.39-.93,12.56-4.99,24.31-23.04,56.61-39.06,75.91-28.21,33.99-74.59,59.22-118.42,64.47-4.97.6-10.83-1.17-15.43,1.06h-12.99c-5.31-2.21-11.75-.47-17.4-1.08-69.65-7.58-135.45-67.52-153.11-134.75-2.96-11.26-3.76-22.85-6.33-34.17.61-8.7-.83-18.44,0-27,4.51-46.31,27.53-97.15,63.47-126.97C87.19,18.56,113.74,7.53,143.14,0h2Z"/>
        <path class="cls-1" d="M221.93,6.15l23.12,99.85c9.46-.87,72.08-29.78,74.92-26.99,1.45,1.42-1.04,2.9-1.66,3.7-12.94,16.57-28.2,31.62-41.3,48.07-1.96,2.46-8.27,10.25-8.02,12.69l50.02,58.01-2.49,1.48-71.48-23.96c-.08,1.09.24,2.41-.08,3.42-9.28,29.81-13.77,60.52-21.17,90.82-.44,1.82-1.58,6.89-4.24,5.77l-23.49-100.02-73.91,23.01,3.01-6.47,45.96-49.26.94-3.71-49.95-61.07c-.84-3.86,2.44-2.51,5.29-2.27,19.3,7.67,38.65,15.67,58.15,22.8,2.01.73,10.22,3.89,11.43,2.88L219.08,5.99l2.86.15Z"/>
      </g>
    </g>
  </g>
</svg>